<svg xmlns="http://www.w3.org/2000/svg" xmlns:xlink="http://www.w3.org/1999/xlink" preserveAspectRatio="xMidYMid" width="55" height="46" viewBox="0 0 55 46">
  <defs>
    <style>

      .cls-2 {
        fill: #808080;
      }
    </style>
  </defs>
  <path d="M44.038,35.909 C44.038,35.909 44.038,28.806 44.038,28.806 C44.038,28.806 8.216,28.806 8.216,28.806 C8.216,28.806 8.216,0.009 8.216,0.009 C8.216,0.009 55.022,0.009 55.022,0.009 C55.022,0.009 55.022,27.215 55.022,27.215 C55.022,27.215 44.038,35.909 44.038,35.909 ZM52.044,3.036 C52.044,3.036 11.194,3.036 11.194,3.036 C11.194,3.036 11.194,25.780 11.194,25.780 C11.194,25.780 44.038,25.780 44.038,25.780 C44.038,25.780 47.015,25.780 47.015,25.780 C47.015,25.780 47.015,28.806 47.015,28.806 C47.015,28.806 47.015,29.717 47.015,29.717 C47.015,29.717 52.044,25.736 52.044,25.736 C52.044,25.736 52.044,3.036 52.044,3.036 ZM40.933,17.307 C40.118,17.307 39.448,17.059 38.921,16.564 C38.393,16.069 38.130,15.425 38.130,14.633 C38.130,13.829 38.397,13.176 38.929,12.675 C39.463,12.175 40.130,11.923 40.933,11.923 C41.746,11.923 42.420,12.175 42.953,12.675 C43.486,13.176 43.752,13.829 43.752,14.633 C43.752,15.425 43.488,16.069 42.962,16.564 C42.434,17.059 41.758,17.307 40.933,17.307 ZM30.703,17.307 C29.888,17.307 29.218,17.059 28.691,16.564 C28.163,16.069 27.900,15.425 27.900,14.633 C27.900,13.829 28.167,13.176 28.699,12.675 C29.232,12.175 29.900,11.923 30.703,11.923 C31.516,11.923 32.190,12.175 32.722,12.675 C33.256,13.176 33.522,13.829 33.522,14.633 C33.522,15.425 33.258,16.069 32.732,16.564 C32.204,17.059 31.527,17.307 30.703,17.307 ZM20.472,17.307 C19.657,17.307 18.987,17.059 18.460,16.564 C17.932,16.069 17.669,15.425 17.669,14.633 C17.669,13.829 17.936,13.176 18.468,12.675 C19.002,12.175 19.669,11.923 20.472,11.923 C21.285,11.923 21.959,12.175 22.492,12.675 C23.025,13.176 23.292,13.829 23.292,14.633 C23.292,15.425 23.028,16.069 22.501,16.564 C21.973,17.059 21.297,17.307 20.472,17.307 ZM8.013,35.862 C8.013,35.862 10.991,35.862 10.991,35.862 C10.991,35.862 37.880,35.862 37.880,35.862 C37.880,35.862 37.880,31.939 37.880,31.939 C37.880,31.939 40.857,31.939 40.857,31.939 C40.857,31.939 40.857,38.888 40.857,38.888 C40.857,38.888 10.991,38.888 10.991,38.888 C10.991,38.888 10.991,45.992 10.991,45.992 C10.991,45.992 0.007,37.297 0.007,37.297 C0.007,37.297 0.007,10.091 0.007,10.091 C0.007,10.091 5.239,10.091 5.239,10.091 C5.239,10.091 5.239,13.118 5.239,13.118 C5.239,13.118 2.984,13.118 2.984,13.118 C2.984,13.118 2.984,35.818 2.984,35.818 C2.984,35.818 8.013,39.799 8.013,39.799 C8.013,39.799 8.013,38.888 8.013,38.888 C8.013,38.888 8.013,35.862 8.013,35.862 Z" id="path-1" class="cls-2" fill-rule="evenodd"/>
</svg>
