<svg fill="#ffffff" xmlns="http://www.w3.org/2000/svg" viewBox="3 3 55 46" id="chat">
	<path d="M47,38.9v-7.1H11.2V3H58v27.2L47,38.9z M55,6H14.2v22.7H47h3v3v0.9l5-4V6z M43.9,20.3c-0.8,0-1.5-0.2-2-0.7   c-0.5-0.5-0.8-1.1-0.8-1.9c0-0.8,0.3-1.5,0.8-2c0.5-0.5,1.2-0.8,2-0.8c0.8,0,1.5,0.3,2,0.8c0.5,0.5,0.8,1.2,0.8,2   c0,0.8-0.3,1.4-0.8,1.9C45.4,20.1,44.8,20.3,43.9,20.3z M33.7,20.3c-0.8,0-1.5-0.2-2-0.7c-0.5-0.5-0.8-1.1-0.8-1.9   c0-0.8,0.3-1.5,0.8-2c0.5-0.5,1.2-0.8,2-0.8c0.8,0,1.5,0.3,2,0.8c0.5,0.5,0.8,1.2,0.8,2c0,0.8-0.3,1.4-0.8,1.9   C35.2,20.1,34.5,20.3,33.7,20.3z M23.5,20.3c-0.8,0-1.5-0.2-2-0.7c-0.5-0.5-0.8-1.1-0.8-1.9c0-0.8,0.3-1.5,0.8-2   c0.5-0.5,1.2-0.8,2-0.8c0.8,0,1.5,0.3,2,0.8c0.5,0.5,0.8,1.2,0.8,2c0,0.8-0.3,1.4-0.8,1.9C25,20.1,24.3,20.3,23.5,20.3z M11,38.9h3   h26.9v-3.9h3v6.9H14V49L3,40.3V13.1h5.2v3H6v22.7l5,4v-0.9V38.9z" fill-rule="evenodd"/>
</svg>