<svg xmlns="http://www.w3.org/2000/svg" xmlns:xlink="http://www.w3.org/1999/xlink" preserveAspectRatio="xMidYMid" width="26" height="26" viewBox="0 0 26 26">
  <defs>
    <style>

      .cls-2 {
        fill: #808080;
      }
    </style>
  </defs>
  <path d="M13.001,-0.006 C5.822,-0.006 -0.002,5.818 -0.002,12.996 C-0.002,20.175 5.822,25.999 13.001,25.999 C20.179,25.999 26.003,20.175 26.003,12.996 C26.003,5.818 20.179,-0.006 13.001,-0.006 ZM17.640,8.815 C17.826,8.696 18.131,8.544 18.368,8.611 C18.554,8.662 18.706,8.730 18.486,8.882 C18.385,8.950 18.232,8.882 18.114,8.916 C18.266,8.950 18.486,9.018 18.419,9.170 C18.859,9.424 18.283,9.729 17.995,9.695 C18.131,9.712 17.707,9.966 17.707,9.949 C17.555,10.033 17.352,10.033 17.233,10.186 C17.098,10.372 17.284,10.694 17.030,10.626 C16.929,10.846 16.539,10.728 16.370,10.965 C16.556,11.168 16.184,11.456 15.997,11.202 C15.828,11.269 15.913,11.456 15.744,11.557 C15.811,11.659 15.828,11.760 15.710,11.828 C15.744,11.811 15.947,11.980 15.997,11.997 C15.964,12.082 15.896,12.150 15.811,12.150 C15.896,12.370 15.710,12.607 15.557,12.742 C15.388,12.878 14.999,13.013 14.948,13.047 C14.643,13.335 14.440,13.758 14.982,13.877 C14.999,13.877 14.999,14.435 15.016,14.452 C15.049,14.655 15.134,15.248 14.778,15.028 C14.609,14.943 14.508,14.469 14.457,14.283 C14.406,14.080 14.389,14.080 14.254,13.877 C14.034,14.131 14.000,13.944 13.814,13.826 C13.627,13.724 13.356,13.758 13.255,13.657 C13.001,13.843 12.815,13.792 12.764,13.504 C12.696,13.640 12.832,13.843 12.815,13.894 C12.730,14.063 12.578,14.029 12.442,13.927 C12.222,13.758 11.748,14.046 11.494,13.927 C11.511,13.927 11.579,13.995 11.629,14.029 C11.579,14.232 11.460,14.114 11.359,14.181 C11.240,14.266 11.138,14.435 11.037,14.520 C11.257,14.943 11.020,15.350 11.037,15.807 C11.037,16.145 11.257,16.738 11.579,16.924 C11.731,17.009 12.239,17.043 12.391,16.975 C12.628,16.873 12.595,16.687 12.679,16.484 C12.764,16.264 12.865,16.162 13.119,16.145 C13.847,16.112 13.289,16.704 13.204,17.009 C13.153,17.229 13.136,17.483 13.102,17.686 C13.187,17.720 13.272,17.703 13.356,17.703 C13.356,17.635 13.407,17.551 13.407,17.500 C13.509,17.669 13.847,17.720 13.949,17.517 C14.067,17.720 14.304,17.872 14.338,18.109 C14.372,18.346 14.592,18.600 14.271,18.600 C14.034,18.600 14.304,19.074 14.338,19.159 C14.525,19.498 14.829,19.633 15.168,19.464 C15.168,19.599 15.117,19.972 14.931,20.005 C14.762,20.039 14.440,19.684 14.508,19.498 C14.491,19.565 14.440,19.616 14.389,19.650 C14.220,19.447 13.932,19.345 13.780,19.142 C13.746,19.091 13.289,18.397 13.390,18.363 C13.153,18.465 12.679,18.295 12.459,18.177 C12.104,17.991 12.053,17.500 11.613,17.567 C11.308,17.618 11.223,17.737 10.868,17.601 C10.631,17.517 10.427,17.347 10.190,17.229 C9.919,17.076 9.445,16.924 9.344,16.586 C9.242,16.315 9.276,15.993 9.124,15.739 C9.022,15.570 8.717,15.231 8.497,15.231 C8.701,15.231 8.311,14.723 8.260,14.672 C8.074,14.452 7.397,13.860 7.532,13.521 C7.566,13.470 7.194,13.335 7.126,13.318 C7.194,13.487 7.211,13.674 7.295,13.826 C7.380,13.995 7.482,14.148 7.583,14.317 C7.769,14.622 8.023,14.994 7.989,15.367 C7.769,15.434 7.837,15.113 7.769,14.977 C7.651,14.757 7.329,14.757 7.245,14.520 C7.278,14.503 7.295,14.503 7.329,14.486 C7.346,14.198 6.923,13.961 6.991,13.758 C6.754,13.572 6.754,13.216 6.584,12.979 C6.432,12.759 6.178,12.658 5.958,12.505 C5.873,12.455 5.264,11.676 5.484,11.625 C5.145,11.710 4.976,10.914 5.027,10.711 C5.027,10.711 4.993,10.711 4.993,10.694 C5.060,10.491 4.942,9.441 5.213,9.424 C5.027,9.441 4.976,8.984 5.027,8.899 C5.060,8.831 5.314,9.085 5.331,9.119 C5.433,9.068 5.535,8.933 5.501,8.815 C5.450,8.679 5.264,8.561 5.145,8.459 C5.094,8.425 4.417,7.985 4.400,8.002 C4.468,7.883 4.451,7.765 4.349,7.680 C4.028,7.934 4.197,7.443 4.028,7.392 C3.960,7.375 3.892,7.325 3.825,7.257 C4.807,5.699 6.178,4.396 7.803,3.498 C7.905,3.481 8.040,3.481 8.176,3.481 C8.480,3.515 8.650,3.769 8.870,3.922 C8.904,3.837 8.836,3.702 8.785,3.617 C8.836,3.481 9.039,3.448 9.158,3.414 C9.310,3.397 9.530,3.363 9.666,3.431 C9.564,3.278 9.445,3.143 9.327,3.007 C9.310,3.024 9.259,3.058 9.242,3.092 C9.056,2.940 8.701,3.143 8.531,3.211 C8.396,3.278 8.277,3.363 8.142,3.414 C8.057,3.448 8.006,3.448 7.939,3.431 C8.447,3.160 8.971,2.923 9.530,2.737 C9.632,2.804 9.733,2.923 9.886,3.041 C9.784,2.957 9.784,3.346 9.818,3.414 C10.004,3.668 10.411,3.498 10.664,3.498 C10.648,3.498 11.409,3.600 11.257,3.414 C11.375,3.583 11.375,3.837 11.528,3.989 C11.680,3.837 11.460,3.668 11.562,3.515 C11.596,3.448 11.900,3.363 12.002,3.312 C12.120,3.228 11.917,3.109 11.866,3.075 C11.697,2.974 11.037,2.923 11.359,2.533 C11.477,2.398 11.900,2.466 12.036,2.550 C12.222,2.652 12.425,2.838 12.171,3.007 C12.290,3.024 12.848,3.177 12.764,3.397 C12.815,3.295 12.899,3.143 13.035,3.143 C13.187,3.160 13.221,3.515 13.289,3.600 C13.526,4.023 13.932,3.177 14.000,3.211 C13.695,3.092 14.271,2.940 14.423,2.990 C14.541,3.041 14.728,3.448 14.508,3.431 C14.694,3.600 14.711,3.972 14.372,3.955 C14.135,3.939 13.864,3.617 13.644,3.871 C13.492,4.040 13.424,4.294 13.272,4.446 C13.035,4.684 12.713,4.667 12.425,4.633 C12.544,4.650 12.171,5.039 12.137,5.107 C12.036,5.225 11.968,5.361 11.934,5.496 C11.900,5.665 11.934,5.852 11.850,6.021 C12.137,5.936 12.290,6.461 12.171,6.478 C12.527,6.427 12.815,6.427 13.153,6.546 C13.390,6.631 13.746,6.732 13.847,6.986 C13.915,6.884 14.237,6.935 14.338,6.969 C14.541,7.071 14.558,7.291 14.609,7.477 C14.677,7.731 14.897,8.154 15.185,8.019 C15.236,7.985 15.608,7.816 15.473,7.714 C15.337,7.596 15.185,7.291 15.320,7.121 C15.456,6.935 15.777,6.884 15.862,6.647 C15.997,6.258 15.456,6.309 15.456,6.021 C15.456,5.852 15.676,5.801 15.659,5.598 C15.659,5.428 15.405,5.090 15.608,4.971 C15.777,4.870 16.590,5.039 16.742,5.141 C16.895,5.242 17.369,5.378 17.403,5.530 C17.369,5.530 17.352,5.530 17.318,5.530 C17.453,5.649 17.572,5.903 17.335,5.970 C17.487,5.936 17.928,6.106 17.623,6.207 C17.724,6.156 17.809,6.190 17.911,6.123 C18.029,6.055 18.097,5.936 18.249,6.021 C18.283,6.038 18.469,5.665 18.571,5.682 C18.723,5.699 18.757,5.919 18.825,6.021 C18.893,6.173 19.079,6.224 19.147,6.377 C19.265,6.664 19.214,6.935 19.604,7.037 C19.722,7.071 20.044,6.884 20.027,7.138 C20.095,7.071 20.129,7.020 20.129,7.003 C20.145,7.240 20.247,7.511 20.535,7.477 C20.535,7.477 20.535,7.799 20.501,7.849 C20.399,8.002 20.145,7.968 19.993,8.053 C19.942,8.070 19.536,8.425 19.587,8.476 C19.367,8.222 19.011,8.222 18.723,8.290 C18.419,8.340 18.131,8.374 17.843,8.493 C17.707,8.561 17.572,8.628 17.470,8.747 C17.420,8.815 17.335,9.119 17.250,9.136 C17.420,9.102 17.504,8.916 17.640,8.815 ZM14.880,23.662 C14.863,23.578 14.846,23.408 14.846,23.392 C14.829,23.121 15.117,22.934 15.100,22.680 C14.914,22.630 14.863,22.443 14.897,22.240 C14.931,21.952 15.185,21.749 15.388,21.563 C15.591,21.377 15.642,20.987 15.591,20.750 C15.507,20.344 15.507,19.921 15.439,19.514 C15.456,19.616 15.744,19.582 15.794,19.718 C15.862,19.599 15.896,19.447 15.981,19.328 C16.048,19.227 16.167,19.193 16.268,19.108 C16.438,19.007 16.793,18.617 16.996,18.854 C17.166,19.057 16.742,19.277 16.963,19.464 C17.030,19.328 16.963,19.125 17.098,18.990 C17.369,18.685 17.555,19.023 17.826,19.108 C18.114,19.193 18.215,19.294 18.435,19.481 C18.368,19.413 18.706,19.294 18.740,19.277 C19.062,19.210 19.197,19.396 19.417,19.565 C19.654,19.735 20.027,19.853 19.993,20.192 C20.162,20.226 20.264,20.276 20.399,20.327 C20.535,20.395 20.721,20.361 20.823,20.463 C19.265,22.105 17.200,23.256 14.880,23.662 Z" id="path-1" class="cls-2" fill-rule="evenodd"/>
</svg>
