<svg xmlns="http://www.w3.org/2000/svg" xmlns:xlink="http://www.w3.org/1999/xlink" preserveAspectRatio="xMidYMid" width="24" height="24" viewBox="0 0 24 24">
  <defs>
    <style>

      .cls-2 {
        fill: #b3b3b3;
      }
    </style>
  </defs>
  <path d="M18.935,16.277 C20.130,14.551 20.763,12.487 20.763,10.393 C20.763,4.656 16.120,0.010 10.386,0.010 C4.652,0.010 0.009,4.656 0.009,10.393 C0.009,16.129 4.652,20.775 10.386,20.775 C12.479,20.775 14.543,20.141 16.267,18.946 C16.267,18.946 21.323,23.990 21.323,23.990 C21.323,23.990 23.991,21.336 23.991,21.336 C23.991,21.336 18.935,16.277 18.935,16.277 ZM10.386,17.000 C6.745,17.000 3.782,14.035 3.782,10.393 C3.782,6.751 6.745,3.786 10.386,3.786 C14.027,3.786 16.990,6.751 16.990,10.393 C16.990,14.035 14.027,17.000 10.386,17.000 Z" id="path-1" class="cls-2" fill-rule="evenodd"/>
</svg>
