<svg xmlns="http://www.w3.org/2000/svg" xmlns:xlink="http://www.w3.org/1999/xlink" preserveAspectRatio="xMidYMid" width="36" height="26" viewBox="0 0 36 26">
  <defs>
    <style>

      .cls-2 {
        fill: #4d4d4d;
        filter: url(#color-overlay-1);
      }
    </style>

    <filter id="color-overlay-1" filterUnits="userSpaceOnUse">
      <feFlood flood-color="#b3b3b3" flood-opacity="1"/>
      <feComposite operator="in" in2="SourceGraphic"/>
      <feBlend mode="normal" in2="SourceGraphic" result="colorOverlay"/>
    </filter>
  </defs>
  <path d="M35.047,3.103 C35.047,3.103 7.508,3.103 7.508,3.103 C7.508,3.103 7.629,-0.012 7.629,-0.012 C7.629,-0.012 -0.008,-0.012 -0.008,-0.012 C-0.008,-0.012 -0.008,3.103 -0.008,3.103 C-0.008,3.103 4.450,3.103 4.450,3.103 C4.450,3.103 6.871,21.309 6.871,21.309 C6.871,21.309 6.908,21.302 6.908,21.302 C6.908,21.302 6.908,21.328 6.908,21.328 C6.908,21.328 8.762,21.328 8.762,21.328 C8.352,21.824 8.097,22.445 8.097,23.129 C8.097,24.731 9.438,26.029 11.093,26.029 C12.747,26.029 14.088,24.731 14.088,23.129 C14.088,22.445 13.833,21.824 13.424,21.328 C13.424,21.328 25.407,21.328 25.407,21.328 C24.999,21.824 24.744,22.445 24.744,23.129 C24.744,24.731 26.085,26.029 27.738,26.029 C29.393,26.029 30.734,24.731 30.734,23.129 C30.734,22.445 30.479,21.824 30.070,21.328 C30.070,21.328 32.226,21.328 32.226,21.328 C32.226,21.328 32.151,20.820 32.033,20.021 C16.711,20.021 6.908,18.508 6.908,18.508 C6.908,18.508 32.978,15.368 32.978,15.368 C32.978,15.368 35.047,3.103 35.047,3.103 ZM11.093,24.329 C10.408,24.329 9.853,23.792 9.853,23.129 C9.853,22.466 10.408,21.928 11.093,21.928 C11.778,21.928 12.333,22.466 12.333,23.129 C12.333,23.792 11.778,24.329 11.093,24.329 ZM27.738,24.329 C27.054,24.329 26.499,23.792 26.499,23.129 C26.499,22.466 27.054,21.928 27.738,21.928 C28.423,21.928 28.978,22.466 28.978,23.129 C28.978,23.792 28.423,24.329 27.738,24.329 Z" id="path-1" class="cls-2" fill-rule="evenodd"/>
</svg>
