<svg xmlns="http://www.w3.org/2000/svg" xmlns:xlink="http://www.w3.org/1999/xlink" preserveAspectRatio="xMidYMid" width="26" height="26" viewBox="0 0 26 26">
  <defs>
    <style>

      .cls-2 {
        fill: #28547c;
      }
    </style>
  </defs>
  <path d="M22.784,21.716 C22.784,22.285 22.332,22.737 21.763,22.737 C21.763,22.737 3.869,22.737 3.869,22.737 C3.300,22.737 2.848,22.285 2.848,21.716 C2.848,21.716 2.848,10.869 2.848,10.869 C2.848,10.869 5.208,10.869 5.208,10.869 C4.991,11.556 4.874,12.309 4.874,13.062 C4.874,17.347 8.456,20.812 12.858,20.812 C17.277,20.812 20.859,17.347 20.859,13.062 C20.859,12.309 20.742,11.556 20.524,10.869 C20.524,10.869 22.784,10.869 22.784,10.869 C22.784,10.869 22.784,10.869 22.784,10.869 C22.784,10.869 22.784,21.716 22.784,21.716 ZM18.030,12.794 C18.030,15.556 15.720,17.799 12.858,17.799 C10.012,17.799 7.702,15.556 7.702,12.794 C7.702,10.032 10.012,7.789 12.858,7.789 C15.720,7.789 18.030,10.032 18.030,12.794 ZM22.784,6.768 C22.784,7.404 22.265,7.923 21.629,7.923 C21.629,7.923 18.717,7.923 18.717,7.923 C18.081,7.923 17.562,7.404 17.562,6.768 C17.562,6.768 17.562,4.006 17.562,4.006 C17.562,3.370 18.081,2.851 18.717,2.851 C18.717,2.851 18.717,2.851 18.717,2.851 C18.717,2.851 21.629,2.851 21.629,2.851 C22.265,2.851 22.784,3.370 22.784,4.006 C22.784,4.006 22.784,6.768 22.784,6.768 ZM25.697,3.286 C25.697,1.479 24.207,-0.011 22.399,-0.011 C22.399,-0.011 3.283,-0.011 3.283,-0.011 C3.283,-0.011 3.283,-0.011 3.283,-0.011 C1.476,-0.011 -0.014,1.479 -0.014,3.286 C-0.014,3.286 -0.014,22.402 -0.014,22.402 C-0.014,24.210 1.476,25.700 3.283,25.700 C3.283,25.700 22.399,25.700 22.399,25.700 C24.207,25.700 25.697,24.210 25.697,22.402 C25.697,22.402 25.697,3.286 25.697,3.286 Z" id="path-1" class="cls-2" fill-rule="evenodd"/>
</svg>
