<svg xmlns="http://www.w3.org/2000/svg" xmlns:xlink="http://www.w3.org/1999/xlink" preserveAspectRatio="xMidYMid" width="39" height="25" viewBox="0 0 39 25">
  <defs>
    <style>

      .cls-2 {
        fill: #dc463c;
      }
    </style>
  </defs>
  <path d="M24.042,12.566 C24.042,11.763 23.959,11.144 23.842,10.524 C23.842,10.524 12.258,10.524 12.258,10.524 C12.258,10.524 12.258,10.524 12.258,10.524 C12.258,10.524 12.258,14.743 12.258,14.743 C12.258,14.743 19.222,14.743 19.222,14.743 C18.937,16.534 17.112,20.032 12.258,20.032 C8.073,20.032 4.659,16.567 4.659,12.282 C4.659,7.997 8.073,4.532 12.258,4.532 C14.652,4.532 16.242,5.553 17.146,6.423 C17.146,6.423 20.477,3.226 20.477,3.226 C18.334,1.217 15.573,0.012 12.258,0.012 C5.479,0.012 -0.011,5.503 -0.011,12.282 C-0.011,19.061 5.479,24.552 12.258,24.552 C19.339,24.552 24.042,19.580 24.042,12.566 ZM38.555,10.524 C38.555,10.524 35.057,10.524 35.057,10.524 C35.057,10.524 35.057,7.026 35.057,7.026 C35.057,7.026 31.541,7.026 31.541,7.026 C31.541,7.026 31.541,10.524 31.541,10.524 C31.541,10.524 28.043,10.524 28.043,10.524 C28.043,10.524 28.043,14.039 28.043,14.039 C28.043,14.039 31.541,14.039 31.541,14.039 C31.541,14.039 31.541,17.538 31.541,17.538 C31.541,17.538 35.057,17.538 35.057,17.538 C35.057,17.538 35.057,14.039 35.057,14.039 C35.057,14.039 38.555,14.039 38.555,14.039 C38.555,14.039 38.555,10.524 38.555,10.524 Z" id="path-1" class="cls-2" fill-rule="evenodd"/>
</svg>
